# xmcd
#
# Track frame offsets: 
#        150
#        12322
#        24977
#        38890
#        53201
#        66758
#        81599
#        94543
#        109085
#        121951
#        134286
#        148109
#        160507
#        172228
#        185921
#        201081
#        214249
#        227606
#        240409
#        251561
#
# Disc length: 3536 seconds
#
# Revision: 1
# Processed by: cddbd v1.5.2PL0 Copyright (c) Steve Scherf et al.
# Submitted via: ExactAudioCopyFreeDBPlugin 1.0
#
DISCID=1a0dce14
DTITLE=Big Bill Broonzy, Scrapper Blackwell, Blind Blake - ABC Of The 
DTITLE=Blues - Vol. 05 Broonzy, Blackwell, Blake
DYEAR=2010
DGENRE=Blues
TTITLE0=Big Bill Broonzy - Mississippi River Blues
TTITLE1=Big Bill Broonzy - Long Tall Mama
TTITLE2=Big Bill Broonzy - Worrying You Off My Mind (Part 1)
TTITLE3=Big Bill Broonzy - Rising Sun Shine On
TTITLE4=Big Bill Broonzy - Come Home Early
TTITLE5=Big Bill Broonzy - Good Jelly
TTITLE6=Big Bill Broonzy - Bull Cow Blues
TTITLE7=Big Bill Broonzy - I Can't Make You Satisfied
TTITLE8=Big Bill Broonzy - How You Want It Done
TTITLE9=Big Bill Broonzy - Hattie Blues
TTITLE10=Scrapper Blackwell - Kokomo Blues
TTITLE11=Blind Blake - Come On Boys, Let's Do That Messin' Around
TTITLE12=Blind Blake - Hard Pushin' Papa
TTITLE13=Blind Blake - Skeedle Loo Doo Blues
TTITLE14=Blind Blake - Georgia Bound
TTITLE15=Blind Blake - Too Tight Blues, No. 2
TTITLE16=Blind Blake - Diddie Wah Diddie
TTITLE17=Blind Blake - Southern Rag
TTITLE18=Blind Blake - C.C. Pill Blues
TTITLE19=Blind Blake - Rope Stretching Blues, Pt. 1
EXTD=
EXTT0=
EXTT1=
EXTT2=
EXTT3=
EXTT4=
EXTT5=
EXTT6=
EXTT7=
EXTT8=
EXTT9=
EXTT10=
EXTT11=
EXTT12=
EXTT13=
EXTT14=
EXTT15=
EXTT16=
EXTT17=
EXTT18=
EXTT19=
PLAYORDER=
